<svg xmlns="http://www.w3.org/2000/svg" width="256" height="256" viewBox="0 0 256 256" fill="none">
<path d="M 248.63,134.84 L 215.77,116.71 C 212.73,115.09 211.06,117.08 211.06,120.08 V 153.91 C 211.06,156.85 213.19,158.77 215.91,157.11 L 248.72,138.79 C 250.21,137.97 250.31,135.71 248.63,134.84 Z" fill="url(#paint0_linear_126_146)"/>
<path d="M 219.41,84.16 C 206.51,77.87 197.72,70.22 193.09,50.63 C 192.86,49.67 192.42,49.62 191.74,49.62 H 185.13 C 184.25,49.62 183.92,49.98 183.92,50.84 V 97.06 C 184.18,116.74 173.91,133.09 155.42,133.09 C 142.12,133.09 135.99,124.84 128.42,111.24 C 117.04,90.68 104.02,76.51 78.91,76.51 C 57.28,76.51 45.22,86.93 31.07,104.66 C 23.96,113.64 16.99,119.65 7.62,120.2 L 6.61,129.08 C 20.42,128.29 29.41,120.08 38.66,108.93 C 49.39,95.59 59.87,85.92 78.29,85.92 C 98.47,85.92 109.68,96.04 121.83,116.19 C 130.43,130.69 137.99,142.63 155.28,142.63 C 167.13,142.63 176.32,136.14 183.87,127.23 V 135.19 C 183.87,150.47 171.13,167.39 153.71,167.39 C 138.64,167.39 130.75,157.09 120.78,140.1 C 109.91,121.21 98.71,108.79 77.71,108.79 C 60.85,108.79 50.62,118.21 40.11,131.45 C 31.07,142.91 22.44,150.18 8.22,151.06 L 10.06,161.46 C 23.76,158.88 34.41,150.97 42.62,140.48 C 53.29,127.16 62.71,118.41 77.71,118.41 C 93.98,118.41 102.72,128.29 114.78,148.81 C 124.79,165.11 134.21,176.72 153.53,176.72 C 166.72,176.72 176.06,170.34 183.91,161.07 V 166.76 C 183.91,180.96 172.38,196.88 152.41,196.88 C 132.22,196.88 121.31,185.64 111.16,165.49 C 102.99,149.28 93.91,139.71 78.41,139.71 C 65.02,139.71 56.66,149.62 45.19,165.21 C 37.08,175.93 29.11,182.27 14.98,185.51 L 18.85,191.62 C 34.11,186.33 39.79,182.75 53.72,166.01 C 62.15,155.51 68.21,148.78 78.62,148.78 C 89.71,148.78 97.07,156.91 105.78,175.25 C 114.99,193.68 128.38,205.38 151.72,205.38 C 174.28,205.38 191.19,185.51 191.19,166.81 V 68.38 C 198.18,77.75 202.09,82.04 215.41,88.53 C 227.06,94.33 235.69,100.88 237.35,113.71 C 237.96,117.42 240.67,118.21 240.98,116.21 C 244.68,100.98 237.62,93.38 219.41,84.16 Z" fill="url(#paint1_linear_126_146)"/>
<defs>
<linearGradient id="paint0_linear_126_146" x1="211.056" y1="137.14" x2="249.41" y2="137.14" gradientUnits="userSpaceOnUse">
<stop stop-color="#9E663A"/>
<stop offset="0.630208" stop-color="#D9A772"/>
<stop offset="1" stop-color="#FFD5A3"/>
</linearGradient>
<linearGradient id="paint1_linear_126_146" x1="6.6123" y1="127.5" x2="249.41" y2="127.5" gradientUnits="userSpaceOnUse">
<stop stop-color="#9E663A"/>
<stop offset="0.630208" stop-color="#EABB8B"/>
<stop offset="1" stop-color="#FFD5A3"/>
</linearGradient>
</defs>
</svg>
