<svg xmlns="http://www.w3.org/2000/svg" width="256" height="256" fill="none" viewBox="0 0 256 256">
<!-- SVG created with Arrow, by QuiverAI (https://quiver.ai) -->
  <path d="m127.9 5.34c-66.83 0-121.6 53.57-121.9 122.5-0.29 67.37 53.9 122.7 121.1 122.7s123.5-54.34 123.5-122.5c0-67.75-53.85-122.7-122.7-122.7z" fill="url(#paint0_linear_120_15)"/>
  <path d="m213.9 131.7-27.23-15.69c-2.42-1.37-4.25-0.23-4.25 2.55v30.3c0 2.78 2.15 3.98 4.64 2.45l26.8-15.49c2.48-1.44 2.49-2.75 0.04-4.12z" fill="url(#paint1_linear_120_15)"/>
  <path d="m193.3 88.5c-11.1-5.76-20.22-10.08-26.4-29.6h-7.85v41.11c0 17.02-10.4 30.95-24.18 30.95-11.72 0-17.07-8.17-23.47-18.84-9.13-15.17-20.15-29.96-43.63-29.96-18.63 0-29.62 10-41.06 23.82-6.45 7.94-12.01 12.29-21.01 13.75-0.19 2.68-0.32 5.38-0.33 8.12 11.65-1.39 19.08-7.01 28.33-18.48 10.4-13.11 20.08-19.56 35.01-19.56 18.41 0 28.82 12.82 37.43 27.22 7.2 11.81 13.97 22.08 28.56 21.9 11.15-0.14 18.57-5.62 24.33-13.41v6.18c0 15.03-11.13 27.71-25.83 27.71-14.1 0-21.6-10.69-30.2-24.6-8.27-13.37-17.8-25.45-35.87-25.45-14.93 0-23.54 8.77-32.49 19.85-7.93 9.7-15.74 15.6-26.61 17.21 0.45 2.9 1.02 5.76 1.7 8.58 11.87-2.69 20.21-9.19 29.37-20.39 8.81-10.72 15.87-16.9 28.3-16.9 13.55 0 21.81 9.57 30.56 23.48 8.64 13.77 17.13 26.95 35.72 26.95 10.79 0 19.22-6.03 25.4-13.13v3.05c0 15.4-11.13 27.65-26.21 27.65-18.1 0-27.46-10.83-35.73-26.8-7.2-13.78-15.13-22.5-29.14-22.5-12.09 0-19.02 9.1-30 22.73-6.29 7.94-12.92 12.88-23.89 15.98 1.17 2.6 2.44 5.14 3.81 7.62l0.25-1.65c10.8-3.81 17.56-8.36 25.78-18.63 9.17-11.43 14.82-18.53 24.18-18.53 9.81 0 15.99 8.17 22.39 21.18 7.93 15.98 18.73 28.23 41.78 28.23 18.8 0 33.91-16.21 33.91-34.56v-83.74c6.04 8.17 11.6 12.79 21.64 17.67 9.36 4.75 14.92 12.27 15.95 21.2 0.26 2.45 3.31 3.9 3.86 3.12 1.29-2.71 1.81-6.96 1.03-11.81-1.16-5.61-7.89-12.78-15.39-16.72z" fill="url(#paint2_linear_120_15)"/>
  <defs>
    <linearGradient id="paint0_linear_120_15" x1="5.998" x2="250.6" y1="127.9" y2="127.9" gradientUnits="userSpaceOnUse">
      <stop stop-color="#151515" offset="0"/>
      <stop stop-color="#111" offset="1"/>
    </linearGradient>
    <linearGradient id="paint1_linear_120_15" x1="182.4" x2="214.9" y1="133.7" y2="133.7" gradientUnits="userSpaceOnUse">
      <stop stop-color="#B2805B" offset="0"/>
      <stop stop-color="#FED09E" offset="1"/>
    </linearGradient>
    <linearGradient id="paint2_linear_120_15" x1="5.375" x2="209.2" y1="126.1" y2="126.1" gradientUnits="userSpaceOnUse">
      <stop stop-color="#B2805B" offset="0"/>
      <stop stop-color="#FED09E" offset="1"/>
    </linearGradient>
  </defs>
</svg>