<svg xmlns="http://www.w3.org/2000/svg" width="250" height="250" fill="none" viewBox="0 0 250 250">
<!-- SVG created with Arrow, by QuiverAI (https://quiver.ai) -->
  <path d="m124.8 5.67c-65.7 0-119.1 53.19-119.1 119.4 0 44.07 24.37 82.74 61.41 102.6 17.09 10.48 36.62 16.29 57.69 16.29 65.7 0 119.1-53.19 119.9-118.9-0.78-66.25-54.18-119.4-119.9-119.4zm-0.62 231.3c-16.28 0-30.2-3.05-42.81-9.49v-48.29c0-10.05-10.24-16.84-19.37-16.84-9.8 0-15.32 11.02-15.32 17.57v23.9c-20.72-19.78-34.37-47.16-34.37-78.7 0-62.38 49.85-112.6 111.9-112.6s113.1 50.25 113.1 111.9-51.06 112.6-113.1 112.6z" fill="#000"/>
  <path d="m133.6 102.1c-1.2-25.71-1.48-72.03-8.04-74.06-9.46-3.02-9.1 35.83-9.98 71.98l3.73 0.13c1.45-1.13 1.67-54.45 5.76-54.45 2.03 0 3.03 31.53 3.43 55.47l5.1 0.93z" fill="#BB926A"/>
  <path d="m105.6 107.9c-1.8-14.19-1.52-37.86-7.13-37.86s-6.49 16.92-11.02 63.92l6.6-6.79 4.2-41.12 3.03 31.77 4.32-9.92z" fill="#BB926A"/>
  <path d="m80.01 138.4c-3.03-27.28-3.9-84.12-12.69-84.12-7.93 0-8.04 43.59-13.65 94.92-1.08 3.52-1.96 1.01-2.44-4-2.03-17.06-4.45-48.02-11.25-48.02-6.01 0-6.57 15.03-8.6 21.71-0.76 1.76-2.45 1.55-4 1.55h-6.37c-3.89 0-4 5.53-0.86 5.66h8.9c7.93 0 9.6-6.06 11.63-16.87 0.44-1.29 1.11-0.71 1.44 0.81 3.27 12.71 4.66 48.57 8.66 52.33 2.03-1.22 2.25-2.23 6.88-3.25 5.4-12.98 9-86.45 9.88-86.45 2.53 0 3.67 37.72 6.09 72.08l6.38-6.35z" fill="#BB926A"/>
  <path d="m132.7 159.4 2.14 13.29c0.77 3.13 2.91 3.47 4.83 2.91 2.53-0.73 3.52-3.14 5.83-15.97v-6.68l-2.64 2.75c-2.87 2.91-5.65 3.47-10.16 3.7z" fill="#BB926A"/>
  <path d="m185.2 124.9 5.42-4.9-0.12-3.82c2.53 3.82 2.98 22.62 4.53 30.93 0.77 4.18 1.43 3.62 2.19 0 3.14-15.15 5.91-43.69 11.92-43.69 7.93 0 6.94 12.53 9.7 16.35 1.09 1.01 2.08 0.84 2.95 0.84h7.72c4.31 0 4.42 5.54 0.83 5.88h-10.08c-6.46 0-7.9-7.52-11.04-13.47-3.78 12.08-7.15 36.92-9.18 45.38-1.34 5.72-5.86 7.58-8.62-2.21-2.36-8.69-3.61-20.34-6.22-31.29z" fill="#BB926A"/>
  <path d="m157.1 90.04c-1.66-0.11-1.21 3.17-1.21 4.98v12.71c-1.09 4.08-0.74 9.61 1.45 14.76 2.2 9.14 3.08 18.22 6.21 22.57 1.35-0.9 2.9-11.05 4.56-18.11 2.87 0.82 4.21 0.71 6.97-0.45-1.34 9.36-4.1 25.42-8.74 25.42-5.41 0.56-6.5-9.89-8.16-19.89-0.88-5.31-2.23-11.91-3.78-15.84l-4.15-8.35v-17.02l6.85-0.78z" fill="#BB926A"/>
  <path d="m104.8 166.3 6.46-10.61 6.12-1.01c-0.65 12.53-2.31 29.04-3.55 37.39-1.09 6.55-6.81 6-7.7-2.98l-1.33-22.79zm5.37 13.97 1.92-22.57-4.31 8.87 2.39 13.7z" fill="#BB926A"/>
  <path d="m148.2 73.09 35.79-10.61c2.77-1.12 2.88 0.93 2.77 4.22v44.4c0 7.07-8.79 11.62-14.2 11.06-5.41-0.55-8.39-4.33-7.5-8.48 1.76-7.87 10.67-10.25 17.68-8.55v-24.28c0-1.86-0.77-2.53-2.54-1.86l-27.03 7.24c-2.87 1.01-4.42 1.57-4.42 5.83v29.87c0 7.88-7.82 11.69-13.23 11.69s-8.28-4.3-7.73-8.01c1.45-7.08 9.05-9.35 16.87-9.35v-35.96c0-4.15 0.66-6.19 3.54-7.21z" fill="#000"/>
  <path d="m66.23 158.3 26.93-21.69c-0.88 8.62 3.97 14.3 14.05 16l-20.95 25.22c-2.87-9.58-10.21-17.77-20.03-19.53z" fill="#000"/>
  <path d="m113.7 105.5c2.76-1.59 6.44 1.44 6.44 5.85l-4.51 13.79c3.47 2.66 4.61 4.7 4.61 11.04l15.53 8.46c2.02 1.34 1.04 8.59-2.1 9.04l-23.52-4.42c-9.82-1.01-13.4-6.7-13.4-13.04 0-4.16 2.2-8.53 4.96-10.12l11.99-20.6z" fill="#000"/>
  <path d="m136.9 106.7-16.78-3.68c-1.77-0.56-2.32 0.87-1.33 2.8 0.88 1.59 1.11 2.92 0.99 6.63l14.98 1.12c5.19 0.23 5.53-6.16 2.14-6.87z" fill="#000"/>
  <path d="m136.7 142.2 11.53-9.08c4.09-2.41 6.96 2.74 3.61 6.3l-10.72 12.73c-2.03 1.59-3.12 1.05-3-1.36 0.34-3.03 0-5.56-1.42-8.59z" fill="#000"/>
  <path d="m62.87 170c-6.74 0-9.04 6.08-9.04 8.91 0 5.85 4.32 8.98 9.04 8.98 6.14 0 8.67-4.79 8.67-8.98 0-5.05-3.89-8.91-8.67-8.91zm0.11 13.38c-3.73 0-5.28-2.66-5.28-4.92 0-3.4 2.19-5.25 5.17-5.25 3.14 0 5.16 2.38 5.16 5.25 0 2.85-2.02 4.92-5.05 4.92z" fill="#BB926A"/>
  <path d="m109.1 128.8c-5.83 0-5.95 5.04-5.95 6.79 0 5.2 3.58 7.16 5.95 7.16 4.64 0 6.95-4.42 6.95-6.57 0-4.16-3.14-7.38-6.95-7.38z" fill="url(#paint0_linear_367_1424)"/>
  <defs>
    <linearGradient id="paint0_linear_367_1424" x1="103.2" x2="116.1" y1="135.8" y2="135.8" gradientUnits="userSpaceOnUse">
      <stop stop-color="#C49A6C" offset="0"/>
      <stop stop-color="#93603E" offset="1"/>
    </linearGradient>
  </defs>
</svg>