<svg xmlns="http://www.w3.org/2000/svg" width="200" height="200" viewBox="0 0 200 200" fill="none">
<rect width="200" height="200" fill="#FEFFFE"/>
<path d="M 100.18,4.52 C 63.52,4.52 34.81,33.96 34.71,70.86 C 34.61,106.76 63.97,137.19 100.18,137.19 C 136.26,137.19 167.28,107.13 167.28,71.34 C 167.28,35.48 137.57,4.52 100.18,4.52 Z" fill="#151516"/>
<path d="M 146.88,73.81 L 132.18,65.15 C 130.68,64.25 129.63,65.09 129.63,66.43 V 83.34 C 129.63,84.68 130.71,85.37 132.18,84.47 L 146.88,75.64 C 147.74,75.11 147.74,74.34 146.88,73.81 Z" fill="url(#paint0_linear_651_1502)"/>
<path d="M 132.87,48.4 C 124.12,44.13 122.09,36.58 121.38,35.08 H 117.49 V 56.45 C 117.49,66.32 111.91,73.77 104.53,73.77 C 98.74,73.77 95.46,69.41 91.22,62.71 C 85.91,54.37 79.61,47.17 68.43,47.17 C 57.08,47.17 51.28,54.16 46.42,59.79 C 42.32,64.63 39.13,66.74 34.78,67.39 C 34.71,68.69 34.68,69.99 34.68,71.31 C 41.82,70.68 46.09,66.63 50.19,61.83 C 55.29,55.93 60.08,51.31 68.43,51.31 C 77.83,51.31 83.83,58.01 87.93,64.71 C 92.21,71.66 96.31,77.91 104.25,77.91 C 110.05,77.91 114.63,74.73 117.49,70.61 V 75.04 C 116.41,83.13 110.12,88.82 103.91,88.82 C 95.77,88.82 91.22,82.09 86.36,74.41 C 82.09,67.71 77.09,61.62 67.97,61.62 C 59.8,61.62 55.22,66.74 50.71,72.11 C 46.16,77.45 42.13,80.91 35.52,81.78 C 35.73,83.16 35.98,84.51 36.29,85.85 C 43.92,84.68 48.82,80.42 53.61,74.76 C 57.85,69.79 61.5,66.11 67.94,66.11 C 75.74,66.11 79.91,71.31 84.77,78.89 C 89.8,86.68 94.83,92.86 103.91,92.86 C 109.81,92.86 114.42,89.71 117.49,86.29 V 88.72 C 117.49,97.13 111.32,102.53 103.31,102.53 C 93.16,102.53 87.79,95.34 83.24,87.21 C 79.39,80.39 75.05,76.16 68.32,76.16 C 61.12,76.16 57.23,82.41 52.13,88.44 C 48.31,92.97 44.66,95.16 40.01,96.22 C 40.56,97.42 41.15,98.62 41.78,99.78 C 47.85,97.99 51.71,94.64 55.91,89.61 C 60.46,84.23 63.18,80.29 68.32,80.29 C 73.73,80.29 76.83,84.09 80.76,91.53 C 85.55,100.54 92.07,106.86 103.11,106.86 C 113.91,106.86 121.28,98.41 121.28,87.81 V 43.92 C 123.8,47.31 126.21,49.53 130.76,51.96 C 137.12,55.28 140.73,58.84 141.43,65.73 L 143.21,66.81 C 146.72,58.91 142.07,53.08 132.87,48.4 Z" fill="url(#paint1_linear_651_1502)"/>
<path d="M 36.23,151.06 L 28.43,174.36 H 33.52 L 35.09,168.89 H 42.63 L 44.22,174.36 H 48.84 L 41.71,151.06 H 36.23 Z M 36.06,165.04 L 38.71,155.78 L 41.47,165.04 H 36.06 Z" fill="black"/>
<path d="M 51.81,155.04 H 57.18 V 170.83 H 52.12 V 174.36 H 67.26 V 170.83 H 61.92 V 155.04 H 67.43 V 151.19 H 51.81 V 155.04 Z" fill="black"/>
<path d="M 100.69,162.92 L 97.18,150.92 H 92.09 V 174.36 H 95.84 V 157.01 L 99.31,167.51 H 102.75 L 105.95,156.91 V 174.36 H 109.78 V 150.92 H 103.99 L 100.69,162.92 Z" fill="black"/>
<path d="M 113.88,154.76 H 119.25 V 170.55 H 129.22 V 174.08 H 113.88 V 170.55 Z M 113.88,150.92 H 129.22 V 154.76 H 113.88 V 150.92 Z" fill="black"/>
<path d="M 134.11,151.19 H 141.25 C 148.86,151.19 151.62,155.99 151.62,163.06 C 151.62,169.62 147.94,174.36 141.69,174.36 H 134.11 V 151.19 Z M 138.73,170.62 H 141.11 C 146.11,170.62 147.41,166.13 147.41,162.85 C 147.41,158.36 145.83,155.04 141.39,155.04 H 138.73 V 170.62 Z" fill="black"/>
<path d="M 155.61,154.76 H 160.98 V 170.83 H 170.95 V 174.36 H 155.61 V 170.83 Z M 155.61,151.23 H 170.95 V 154.76 H 155.61 V 151.23 Z" fill="black"/>
<path d="M 44.72,187.45 C 44.72,181.91 48.82,179.21 52.92,179.21 C 56.19,179.21 58.36,180.38 59.37,181.91 L 57.97,183.51 C 56.96,182.05 55.39,181.18 52.92,181.18 C 49.17,181.18 47.07,184.02 47.07,187.31 C 47.07,190.84 49.55,193.61 52.92,193.61 C 54.63,193.61 56.13,193.26 56.96,192.46 V 187.73 H 59.06 V 193.81 C 57.83,195.02 55.61,195.75 52.92,195.75 C 47.82,195.75 44.72,192.32 44.72,187.45 Z" fill="black"/>
<path d="M 61.92,189.26 C 61.92,185.06 64.71,183.09 67.81,183.09 C 71.56,183.09 73.59,185.72 73.59,189.12 V 189.81 H 64.19 C 64.33,192.32 65.97,193.81 68.38,193.81 C 70.06,193.81 71.22,193.12 72.23,192.25 L 73.31,193.81 C 72.09,194.95 70.58,195.61 68.41,195.61 C 64.44,195.61 61.92,193.33 61.92,189.26 Z M 64.26,188.32 H 71.43 C 71.12,186.14 69.82,184.84 67.72,184.84 C 65.91,184.84 64.57,185.93 64.26,188.32 Z" fill="black"/>
<path d="M 76.79,183.23 H 78.96 V 185.41 C 79.72,183.95 80.95,183.09 82.85,183.09 C 86.43,183.09 87.86,185.34 87.86,188.77 V 195.61 H 85.55 V 189.12 C 85.55,186.62 84.54,185.06 82.23,185.06 C 80.07,185.06 78.96,186.62 78.96,189.26 V 195.61 H 76.65 V 183.23 H 76.79 Z" fill="black"/>
<path d="M 90.31,189.26 C 90.31,185.06 93.1,183.09 96.2,183.09 C 99.95,183.09 101.98,185.72 101.98,189.12 V 189.81 H 92.58 C 92.72,192.32 94.36,193.81 96.77,193.81 C 98.45,193.81 99.61,193.12 100.62,192.25 L 101.7,193.81 C 100.47,194.95 98.97,195.61 96.8,195.61 C 92.83,195.61 90.31,193.33 90.31,189.26 Z M 92.65,188.32 H 99.81 C 99.5,186.14 98.21,184.84 96.11,184.84 C 94.27,184.84 92.93,185.93 92.65,188.32 Z" fill="black"/>
<path d="M 105.05,183.23 H 107.21 V 186.07 C 108.04,183.95 109.2,183.02 110.84,183.02 C 111.54,183.02 112.02,183.16 112.37,183.37 L 111.95,185.41 C 111.54,185.19 111.05,185.13 110.64,185.13 C 108.41,185.13 107.36,186.89 107.29,189.81 V 195.47 H 105.05 V 183.23 Z" fill="black"/>
<path d="M 113.13,191.87 C 113.13,189.47 115.03,188.01 118.43,188.01 H 121.5 V 187.45 C 121.5,185.65 120.34,184.85 118.31,184.85 C 116.87,184.85 115.57,185.48 114.75,186.21 L 113.92,184.44 C 115.15,183.51 116.79,182.95 118.72,182.95 C 122.12,182.95 123.69,184.51 123.69,187.66 V 195.33 H 121.63 V 193.64 C 120.87,194.95 119.51,195.54 117.64,195.54 C 114.95,195.61 113.13,194.4 113.13,191.87 Z M 121.53,190.93 V 189.61 H 118.26 C 116.23,189.61 115.33,190.34 115.33,191.73 C 115.33,192.91 116.23,193.64 117.88,193.64 C 119.78,193.64 121.08,192.53 121.53,190.93 Z" fill="black"/>
<path d="M 128.04,191.45 V 185.06 H 126.08 V 183.23 H 128.11 L 128.38,180.24 H 130.31 V 183.23 H 133.82 V 185.06 H 130.31 V 191.11 C 130.31,192.91 130.94,193.64 132.34,193.64 C 133.03,193.64 133.58,193.33 133.93,193.12 L 134.56,194.81 C 133.86,195.33 132.85,195.68 131.7,195.68 C 129.29,195.61 128.04,194.33 128.04,191.45 Z" fill="black"/>
<path d="M 135.12,189.33 C 135.12,185.13 137.91,182.95 141.49,182.95 C 145.66,182.95 147.76,185.65 147.76,189.19 C 147.76,193.26 145.14,195.54 141.49,195.54 C 137.46,195.61 135.12,193.05 135.12,189.33 Z M 145.52,189.12 C 145.52,186.35 143.95,184.85 141.36,184.85 C 138.77,184.85 137.37,186.62 137.37,189.26 C 137.37,191.94 138.84,193.71 141.36,193.71 C 143.95,193.71 145.52,192.01 145.52,189.12 Z" fill="black"/>
<path d="M 150.62,183.23 H 152.78 V 186.07 C 153.61,183.95 154.76,183.02 156.41,183.02 C 157.11,183.02 157.59,183.16 157.94,183.37 L 157.52,185.41 C 157.11,185.19 156.62,185.13 156.21,185.13 C 153.97,185.13 152.93,186.89 152.86,189.81 V 195.47 H 150.62 V 183.23 Z" fill="black"/>
<defs>
<linearGradient id="paint0_linear_651_1502" x1="129.616" y1="74.746" x2="147.441" y2="74.746" gradientUnits="userSpaceOnUse">
<stop stop-color="#C68F66"/>
<stop offset="1" stop-color="#D7AE80"/>
</linearGradient>
<linearGradient id="paint1_linear_651_1502" x1="34.6758" y1="70.9693" x2="144.689" y2="70.9693" gradientUnits="userSpaceOnUse">
<stop stop-color="#B98961"/>
<stop offset="1" stop-color="#D7AE80"/>
</linearGradient>
</defs>
</svg>